<svg width="538" height="678" viewBox="0 0 538 678" fill="none" xmlns="http://www.w3.org/2000/svg">
<path d="M13 625V53C13 30.9086 30.9086 13 53 13H365.525L525 192.3V625C525 647.091 507.091 665 485 665H53C30.9086 665 13 647.091 13 625Z" fill="black"/>
<path d="M525 192.3V625C525 647.091 507.091 665 485 665H53C30.9086 665 13 647.091 13 625V53C13 30.9086 30.9086 13 53 13H365.525M525 192.3L365.525 13M525 192.3H405.525C383.433 192.3 365.525 174.391 365.525 152.3V13" stroke="white" stroke-width="25"/>
<path d="M272.557 262.005C268.383 257.832 261.617 257.832 257.443 262.005L147.193 372.255C145.189 374.26 144.062 376.978 144.062 379.812V508.438C144.062 514.34 148.847 519.125 154.75 519.125H237.438C243.34 519.125 248.125 514.34 248.125 508.438V436.438H281.875V508.438C281.875 514.34 286.66 519.125 292.562 519.125H375.25C381.153 519.125 385.938 514.34 385.938 508.438V379.812C385.938 376.978 384.812 374.26 382.807 372.255L358.375 347.823V287.938C358.375 282.035 353.59 277.25 347.688 277.25H329.312C323.41 277.25 318.625 282.035 318.625 287.938V308.073L272.557 262.005ZM165.438 497.75V384.239L265 284.677L364.562 384.239V497.75H303.25V425.75C303.25 419.847 298.465 415.062 292.562 415.062H237.438C231.535 415.062 226.75 419.847 226.75 425.75V497.75H165.438Z" fill="white" stroke="white" stroke-width="3"/>
</svg>
