<svg width="538" height="678" viewBox="0 0 538 678" fill="none" xmlns="http://www.w3.org/2000/svg">
<path d="M13 625V53C13 30.9086 30.9086 13 53 13H365.525L525 192.3V625C525 647.091 507.091 665 485 665H53C30.9086 665 13 647.091 13 625Z" fill="black"/>
<path d="M525 192.3V625C525 647.091 507.091 665 485 665H53C30.9086 665 13 647.091 13 625V53C13 30.9086 30.9086 13 53 13H365.525M525 192.3L365.525 13M525 192.3H405.525C383.433 192.3 365.525 174.391 365.525 152.3V13" stroke="white" stroke-width="25"/>
<path d="M243.569 371.855C242.093 372.04 240.896 373.137 240.583 374.591L239.075 381.589C238.876 382.516 239.061 383.484 239.587 384.272C240.114 385.06 240.938 385.6 241.871 385.77L250.062 387.259C252.575 387.873 252.887 388.407 252.889 388.411C252.918 388.459 253.226 389.051 252.645 391.695L252.64 391.718L239.076 455.447C239.075 455.448 239.075 455.449 239.075 455.45C237.232 463.996 237.509 471.189 240.796 476.354C244.227 481.746 250.24 483.91 257.355 483.91C262.864 483.91 268.72 482.645 273.904 480.545C279.051 478.461 283.837 475.43 286.964 471.664C287.327 471.227 287.578 470.708 287.696 470.152L289.311 462.507C289.623 461.031 288.953 459.521 287.65 458.761C286.346 458 284.702 458.161 283.571 459.16C280.72 461.675 276.248 462.806 273.289 462.806C271.637 462.806 271.307 462.3 271.166 462.047C270.847 461.472 270.535 460.043 271.116 457.228C271.117 457.224 271.117 457.221 271.118 457.217L289.525 370.781C289.761 369.673 289.446 368.52 288.68 367.685C287.913 366.851 286.791 366.439 285.666 366.58L243.569 371.855ZM412.5 396C412.5 475.253 348.253 539.5 269 539.5C189.747 539.5 125.5 475.253 125.5 396C125.5 316.747 189.747 252.5 269 252.5C348.253 252.5 412.5 316.747 412.5 396ZM269 353.562C281.081 353.562 290.875 343.769 290.875 331.688C290.875 319.606 281.081 309.812 269 309.812C256.919 309.812 247.125 319.606 247.125 331.688C247.125 343.769 256.919 353.562 269 353.562Z" fill="white" stroke="black" stroke-width="7" stroke-linejoin="round"/>
</svg>
