<svg width="538" height="678" viewBox="0 0 538 678" fill="none" xmlns="http://www.w3.org/2000/svg">
<path d="M13 625V53C13 30.9086 30.9086 13 53 13H365.525L525 192.3V625C525 647.091 507.091 665 485 665H53C30.9086 665 13 647.091 13 625Z" fill="black"/>
<path d="M525 192.3V625C525 647.091 507.091 665 485 665H53C30.9086 665 13 647.091 13 625V53C13 30.9086 30.9086 13 53 13H365.525M525 192.3L365.525 13M525 192.3H405.525C383.433 192.3 365.525 174.391 365.525 152.3V13" stroke="white" stroke-width="25"/>
<rect x="38.5" y="208.5" width="460" height="447" stroke="black"/>
<path d="M271.674 358.975L330.868 416.5H167.656C158.912 416.5 151.75 423.399 151.75 432C151.75 440.601 158.912 447.5 167.656 447.5H330.868L271.674 505.025C265.442 511.081 265.442 520.919 271.674 526.975C277.882 533.008 287.93 533.008 294.138 526.975L380.576 442.975C386.808 436.919 386.808 427.081 380.576 421.025L294.138 337.025C287.93 330.992 277.882 330.992 271.674 337.025C265.442 343.081 265.442 352.919 271.674 358.975Z" fill="white" stroke="white" stroke-width="3" stroke-linecap="round" stroke-linejoin="round"/>
</svg>
