<svg width="538" height="678" viewBox="0 0 538 678" fill="none" xmlns="http://www.w3.org/2000/svg">
<path d="M13 625V53C13 30.9086 30.9086 13 53 13H365.525L525 192.3V625C525 647.091 507.091 665 485 665H53C30.9086 665 13 647.091 13 625Z" fill="black"/>
<path d="M525 192.3V625C525 647.091 507.091 665 485 665H53C30.9086 665 13 647.091 13 625V53C13 30.9086 30.9086 13 53 13H365.525M525 192.3L365.525 13M525 192.3H405.525C383.433 192.3 365.525 174.391 365.525 152.3V13" stroke="white" stroke-width="25"/>
<path d="M251.882 263.361C256.341 245.546 281.659 245.546 286.118 263.361L287.432 268.612C290.793 282.042 307.606 286.547 317.232 276.597L320.995 272.707C333.764 259.508 355.69 272.167 350.644 289.824L349.157 295.028C345.353 308.34 357.66 320.647 370.972 316.843L376.176 315.356C393.833 310.31 406.492 332.236 393.293 345.005L389.403 348.768C379.453 358.395 383.958 375.207 397.388 378.568L402.639 379.882C420.454 384.341 420.454 409.659 402.639 414.118L397.388 415.432C383.958 418.793 379.453 435.606 389.403 445.232L393.293 448.995C406.492 461.764 393.833 483.69 376.176 478.644L370.972 477.157C357.66 473.353 345.353 485.66 349.157 498.972L350.644 504.176C355.69 521.833 333.764 534.492 320.995 521.293L317.232 517.403C307.606 507.453 290.793 511.958 287.432 525.388L286.118 530.639C281.659 548.454 256.341 548.454 251.882 530.639L250.568 525.388C247.207 511.958 230.395 507.453 220.768 517.403L217.005 521.293C204.236 534.492 182.31 521.833 187.356 504.176L188.843 498.972C192.647 485.66 180.34 473.353 167.028 477.157L161.824 478.644C144.167 483.69 131.508 461.764 144.707 448.995L148.597 445.232C158.547 435.606 154.042 418.793 140.612 415.432L135.361 414.118C117.546 409.659 117.546 384.341 135.361 379.882L140.612 378.568C154.042 375.207 158.547 358.395 148.597 348.768L144.707 345.005C131.508 332.236 144.167 310.31 161.824 315.356L167.028 316.843C180.34 320.647 192.647 308.34 188.843 295.028L187.356 289.824C182.31 272.167 204.236 259.508 217.005 272.707L220.768 276.597C230.395 286.547 247.207 282.042 250.568 268.612L251.882 263.361ZM360.378 406.184H273.592L221.515 475.619C235.371 484.005 251.622 488.832 269 488.832C316.618 488.832 355.771 452.589 360.378 406.184ZM360.378 387.817C355.771 341.412 316.618 305.169 269 305.169C251.622 305.169 235.371 309.996 221.515 318.382L273.592 387.817H360.378ZM214.756 322.894C214.219 323.287 213.687 323.687 213.159 324.092L214.756 322.894ZM206.83 329.413C188.594 346.195 177.168 370.264 177.168 397C177.168 423.737 188.594 447.806 206.83 464.588L257.521 397L206.83 329.413ZM213.159 469.909C213.687 470.314 214.219 470.714 214.756 471.107L213.159 469.909Z" fill="white"/>
</svg>
